<?xml version="1.0" encoding="UTF-8" standalone="no"?>
<!-- Created with Inkscape (http://www.inkscape.org/) -->

<svg
   xmlns:dc="http://purl.org/dc/elements/1.1/"
   xmlns:cc="http://creativecommons.org/ns#"
   xmlns:rdf="http://www.w3.org/1999/02/22-rdf-syntax-ns#"
   xmlns:svg="http://www.w3.org/2000/svg"
   xmlns="http://www.w3.org/2000/svg"
   xmlns:sodipodi="http://sodipodi.sourceforge.net/DTD/sodipodi-0.dtd"
   xmlns:inkscape="http://www.inkscape.org/namespaces/inkscape"
   width="340.39359mm"
   height="348.69913mm"
   viewBox="0 0 340.39359 348.69913"
   version="1.1"
   id="svg5974"
   inkscape:version="0.92.1 r15371"
   sodipodi:docname="sun.svg">
  <defs
     id="defs5968" />
  <sodipodi:namedview
     id="base"
     pagecolor="#ffffff"
     bordercolor="#666666"
     borderopacity="1.0"
     inkscape:pageopacity="0.0"
     inkscape:pageshadow="2"
     inkscape:zoom="0.35"
     inkscape:cx="371.83497"
     inkscape:cy="793.24614"
     inkscape:document-units="mm"
     inkscape:current-layer="layer1"
     showgrid="false"
     fit-margin-top="0"
     fit-margin-left="0"
     fit-margin-right="0"
     fit-margin-bottom="0"
     inkscape:window-width="1920"
     inkscape:window-height="1016"
     inkscape:window-x="0"
     inkscape:window-y="27"
     inkscape:window-maximized="1" />
  <metadata
     id="metadata5971">
    <rdf:RDF>
      <cc:Work
         rdf:about="">
        <dc:format>image/svg+xml</dc:format>
        <dc:type
           rdf:resource="http://purl.org/dc/dcmitype/StillImage" />
        <dc:title></dc:title>
      </cc:Work>
    </rdf:RDF>
  </metadata>
  <g
     inkscape:label="Layer 1"
     inkscape:groupmode="layer"
     id="layer1"
     transform="translate(161.12538,-10.013929)">
    <path
       style="clip-rule:evenodd;fill:#ffffff;fill-rule:evenodd;stroke:#ffffff;stroke-width:0.28222254;image-rendering:optimizeQuality;shape-rendering:geometricPrecision"
       d="m -30.399351,60.319876 c 0.013,0.0016 0.0257,0.0033 0.0386,0.005 -0.003,0.0058 -0.0114,0.01537 -0.0132,0.0204 z"
       id="path5916"
       inkscape:connector-curvature="0"
       sodipodi:nodetypes="cccc" />
    <path
       style="clip-rule:evenodd;fill:#ffffff;fill-rule:evenodd;stroke:#ffffff;stroke-width:0.28222254;image-rendering:optimizeQuality;shape-rendering:geometricPrecision"
       d="m 63.910959,101.72192 0.0156,0.016 c -0.0209,0.003 -0.0455,0.007 -0.0661,0.01 z"
       id="path5914"
       inkscape:connector-curvature="0"
       sodipodi:nodetypes="cccc" />
    <path
       inkscape:connector-curvature="0"
       style="clip-rule:evenodd;fill:#ffffff;fill-rule:evenodd;stroke:#ffffff;stroke-width:0.28222254;image-rendering:optimizeQuality;shape-rendering:geometricPrecision"
       d="m 36.961769,10.15504 c -0.1524,0.0254 -0.27961,0.05049 -0.43201,0.101285 -1.4732,0.4064 -4.64846,1.905101 -6.09629,2.641701 l -13.61414,7.061583 C 9.9867286,23.693415 3.5347386,28.01147 -2.9422614,32.304075 c -0.6604,0.4318 -1.21859,0.812647 -1.82833,1.219047 l -6.9091096,4.876707 c -4.57203,3.2004 -9.06767,6.629062 -13.41107,10.134264 l -6.47713,5.283399 c -0.5588,0.4572 -3.42929,1.193895 -4.41989,1.473295 -1.5494,0.4318 -2.97149,1.092359 -4.44469,1.447975 -3.556,-2.387606 -6.93409,-5.004073 -10.56629,-7.264675 l -11.125413,-6.8833 c -5.537227,-3.352805 -11.404415,-6.578748 -17.271815,-9.474359 l -15.011479,-7.340637 c -3.0226,-1.5494 -4.241853,0.254215 -4.826053,3.073715 -0.2794,1.295403 -0.58473,2.540302 -0.838729,3.708818 -1.7018,7.874008 -2.66618,15.874662 -3.07266,24.002669 l -0.30491,4.063836 c -0.127,1.320803 -0.0767,3.149524 -0.17827,4.368724 -0.2286,2.743202 -0.0502,18.542074 0.15295,22.199679 l 0.76171,12.674679 c 0.254,1.777999 -0.17743,2.057059 -1.11723,3.301609 l -2.81948,3.91139 c -0.5334,0.6604 -1.85467,0.4827 -3.73414,0.6351 -8.4836,0.6604 -17.80506,1.93024 -26.00926,3.42873 -5.1308,0.9398 -10.03339,1.95596 -14.91019,2.92127 -2.4892,0.4826 -4.82577,1.06738 -7.26417,1.65158 -3.7592,0.9144 -2.20953,3.60659 -1.42213,5.58777 1.651,4.08941 3.88588,8.07721 6.12108,11.86181 0.5842,0.9906 1.04153,1.77778 1.62573,2.74298 0.73385,1.22308 4.31673,7.31986 5.28392,8.20002 -0.008,0.0359 -0.0183,0.0707 -0.0265,0.10697 -1.143,1.8796 0.38116,7.11226 1.11776,8.94106 1.2954,3.2004 5.00393,8.76295 7.64553,11.37915 l 7.01146,6.65696 c 0,2.00568 -0.50798,4.11284 -0.50798,6.14381 0,1.9812 -0.35562,4.39403 -0.33022,6.40064 0.0254,2.2352 0,4.49617 0,6.73137 0.0254,1.6764 -0.30464,1.32092 -1.21904,2.13372 -0.6858,0.5842 -1.09231,1.16771 -1.80351,1.72651 l -12.8266,12.39563 c -0.3556,0.4064 -0.4323,0.58416 -0.83873,1.01596 -0.99057,1.016 -2.81951,2.18439 -2.13371,4.21628 0.381,1.1176 2.43885,2.23502 3.68351,3.04787 l 17.72914,9.525 c 3.9116,1.98121 2.15908,-0.508 5.13096,8.48372 2.159,6.52781 5.05455,12.80163 8.20415,18.87223 0.635,1.2192 0.2535,1.14329 -0.1783,2.4133 -1.905,5.4356 -4.44463,12.49714 -5.94329,17.93275 l -1.54926,5.2064 c -0.3556,2.8702 2.1083,3.04837 3.47988,3.22617 5.89282,0.762 13.30904,0.78754 19.55747,0.45734 1.142997,-0.0508 2.159314,0.076 3.276808,-0.10181 2.286,-0.3556 2.311347,0.55853 4.165627,2.59053 9.453324,8.21071 17.743858,14.43493 26.580809,20.01221 4.816977,2.61311 18.271225,9.19118 18.271225,9.19118 l 13.84774,43.59166 c 0,0 1.65089,-0.99039 2.53989,-1.57459 7.34063,-4.9276 12.26804,-8.45825 19.10064,-14.02085 1.905,-1.5494 8.5852796,-7.03591 10.0076796,-8.48371 l 6.65438,-5.96915 c 0.4826,-0.4318 0.48318,-0.71112 1.14358,-0.86352 l 11.4551104,-0.99063 c 0.9652,-0.127 6.95926,-0.99071 7.13706,-0.96531 l 7.36645,5.07979 c 3.81002,2.54 7.44214,4.95319 11.37917,7.28999 l 17.32296,9.75341 c 1.8034,0.9398 3.60688,1.80319 5.48648,2.74299 4.5974,2.3114 21.41228,10.41411 23.03788,10.16011 2.4384,-0.381 2.51431,-3.14976 2.9714,-5.46116 1.778,-8.83923 2.81945,-19.65913 2.81945,-30.30204 0,-1.2954 -0.076,-2.71804 0.10181,-3.93722 l -1.27021,-27.83811 c 0.8128,-0.2286 1.24455,-1.06725 1.85415,-1.52445 l 10.820541,-11.04894 3.8866,-4.67361 c 0.7112,-0.9144 0.68567,-1.0409 1.87947,-1.4981 l 14.37637,-6.14692 c 0.762,-0.381 1.47283,-0.6602 2.28563,-1.0666 0.8128,-0.4064 1.49871,-0.6602 2.31151,-1.0666 3.7338,-1.8796 7.5185,-3.53065 11.3285,-5.66425 2.2352,-1.2446 5.33398,-2.66733 7.69618,-4.08967 2.8448,-1.70181 6.65517,-3.60717 9.90637,-5.56297 l 8.43306,-5.02864 c 2.667,-1.7526 5.63819,-3.42927 8.38142,-5.25807 1.3208,-0.889 3.09935,-1.52385 3.32795,-3.42873 v -0.076 -0.73639 l -0.0506,-0.0517 c -0.1524,-1.2954 -1.04198,-1.90481 -1.65158,-2.56521 -0.381,-0.4064 -0.4318,-0.60956 -0.8382,-1.01596 -1.143,-1.1684 -2.23499,-2.18382 -3.37809,-3.35225 l -6.22287,-5.7149 c -0.381,-0.381 -0.53367,-0.43254 -0.91467,-0.76274 -5.3848,-4.80061 -9.52505,-7.77237 -15.18925,-12.03958 l -12.19203,-8.33127 0.50798,-7.23884 c 0,-1.1176 0.12747,-1.65097 0.17827,-2.51457 0.1745,-3.43963 -0.16343,-6.90256 -0.17621,-10.17509 0.0238,-0.0357 0.0493,-0.0795 0.0729,-0.10956 0.1524,-0.8128 0.25376,-0.99067 0.076,-1.98127 0,-2.1336 -0.65955,-6.68108 -0.93895,-8.73848 -0.6096,-4.31801 -1.21968,-8.38172 -2.18488,-12.62352 -0.254,-1.1176 -0.43124,-1.87956 -0.68524,-3.02256 -0.2286,-1.0922 -0.50874,-1.90464 -0.76274,-2.92075 -1.1684,-4.8006 -2.87015,-9.3728 -4.52118,-13.97021 -0.889,-2.4384 -0.7113,-1.47319 1.0413,-4.9785 1.1938,-2.41301 2.61662,-4.72475 3.6835,-7.23936 l 2.36159,-5.02915 c 0.20315,-0.4572 0.40659,-0.81213 0.60979,-1.21853 l 5.13095,-11.50627 c 0.381,-0.9398 0.71136,-1.62594 1.11776,-2.56574 l 1.09194,-2.61586 c 0.8636,-2.235201 -0.63442,-3.860957 -2.69185,-4.292757 -8.7884,-1.778002 -13.76688,-2.235581 -22.52988,-3.200839 L 109.5046,93.848591 c -1.0668,0 -2.66756,0.07636 -3.65819,-0.05064 -2.94641,-0.381 -1.8031,0.380738 -3.78426,-1.752865 -0.3302,-0.3302 -0.60979,-0.584472 -0.93999,-0.914672 -1.270001,-1.295403 -2.438691,-2.438186 -3.708821,-3.708303 l -7.77214,-7.010423 c -0.6604,-0.508 -1.24423,-1.016297 -1.95543,-1.575097 -0.7366,-0.5842 -1.32117,-1.06694 -2.05777,-1.62574 l -6.45128,-4.647779 c -0.762,-0.508 -1.39689,-0.939895 -2.20969,-1.473295 -1.5494,-1.016 -2.9209,-1.879616 -4.5465,-2.844787 -3.1496,-1.905003 -6.22284,-3.555836 -9.57564,-5.232239 l -7.64603,-3.454572 c -0.6858,-0.279402 -1.93027,-0.913918 -2.71767,-0.990118 -1.4224,-6.146808 -3.37799,-12.243086 -5.07979,-18.288291 -2.3368,-8.356611 -4.87667,-16.840751 -6.73087,-25.552961 -0.38111,-1.701757 -0.73739,-4.165369 -2.61699,-4.571769 z m -1.55236,6.857979 c -0.0762,1.4986 3.9624,15.925459 4.6736,18.490861 1.6002,5.969005 3.40341,11.91287 5.07981,17.958078 3.2512,11.811013 7.13767,25.958496 7.59487,38.861712 -0.9144,-0.558803 -3.68327,-3.276526 -4.92787,-4.368726 -8.4074,-7.340611 -19.58324,-14.14748 -30.45446,-17.982883 -7.0104,-2.489202 -14.7068904,-4.724508 -22.6316904,-6.146911 -8.3947296,-1.496346 -16.5616996,-2.360086 -25.0821896,-3.475241 -0.003,0.0058 -0.0111,0.01564 -0.013,0.02066 l -0.0254,-0.02532 c 0.013,0.0016 0.0254,0.003 0.0382,0.0047 0.46178,-0.898991 13.20676,-10.808592 15.02389,-12.19667 C -6.5772314,41.473071 -0.32899143,37.383851 8.7896386,31.389443 12.879039,28.69704 31.573809,17.775059 35.409209,17.013059 Z M -94.551147,31.668456 c 2.8194,0.762 21.386879,10.744322 25.044479,12.827125 6.1468,3.479802 11.734747,6.908723 17.551377,10.718726 1.0922,0.711202 4.9022,3.175383 5.5118,3.886583 -2.3368,0.7366 -5.46095,2.36201 -7.69615,3.40341 -9.525027,4.445005 -18.999571,10.642438 -26.949797,17.094046 l -7.391268,6.40116 c -0.5334,0.5588 -0.787453,0.888894 -1.320853,1.371494 -1.1176,1.016003 -6.934173,6.959672 -8.026373,8.331274 v 0.02532 c -0.4064,-2.184403 -0.38108,-6.019792 -0.48268,-8.356595 -0.5588,-13.284213 -0.431773,-27.940098 1.168427,-41.071913 0.3048,-2.590803 1.676638,-13.030428 2.591038,-14.63063 z m 48.054946,34.908464 c 0.17624,0.0084 0.28493,0.127672 0.47543,0.34675 39.5224496,-0.254 68.68155,11.911965 92.25278,30.352669 3.302,2.590802 5.38493,4.648781 8.30595,7.163381 1.778,1.524 7.08734,7.08602 8.61134,8.71162 l 6.07045,7.21403 c 4.2418,5.4356 8.88989,12.09092 12.39509,18.21232 4.17999,7.32118 12.37335,24.04834 13.5041,32.68431 -9.17737,2.8106 -18.36119,6.33099 -26.35653,9.48056 -3.0734,1.2192 -22.96165,9.4233 -25.55245,10.0583 -0.7874,-0.6858 -2.28592,-4.64804 -9.04235,-9.57564 -3.6322,-2.64161 -7.23908,-4.64826 -11.83648,-6.83266 -15.9766204,-7.59461 -51.25743,-16.1034 -69.59626,-12.5982 -2.3368,0.4572 -1.52382,0.73659 -3.40342,-0.33021 -5.5626,-3.1496 -11.353795,-4.57234 -18.211795,-4.90254 -1.4224,-2.7686 -6.020091,-6.12149 -8.763291,-7.8233 -7.010427,-4.3434 -15.77295,-7.11182 -23.875553,-9.24543 -5.18491,-1.37608 -8.61988,-1.78285 -13.04623,-2.77347 0.61473,-1.99806 1.77763,-5.15093 2.32698,-6.3717 2.8194,-6.22301 5.94315,-11.12563 9.49918,-16.73904 2.3622,-3.7592 4.800388,-6.62929 7.416588,-10.0583 0.5842,-0.7874 1.372182,-1.72705 1.981782,-2.38745 0.4572,-0.508 0.584253,-0.76244 0.990653,-1.194239 0.4572,-0.4826 0.660267,-0.660485 1.041267,-1.143085 l 13.258642,-12.801285 c 1.4224,-1.244603 3.301894,-2.692255 4.876694,-3.860747 9.1694,-6.781806 14.300283,-9.804546 24.536483,-14.655951 1.36525,-0.650878 1.84721,-0.94466 2.14095,-0.930693 z m 101.03157,0.372586 c 1.524,0.355603 4.41997,1.930419 5.89317,2.667021 7.0612,3.505203 14.17291,7.949835 20.31971,12.64884 1.0922,0.8382 7.87408,6.299282 8.99168,7.493082 1.4478,1.574803 2.84477,2.286035 4.19097,4.165638 -8.7376,0.1524 -18.05919,0.761859 -26.79681,1.549259 -2.7432,0.254 -5.89304,0.711272 -8.61084,0.812872 h -0.0254 c -0.0254,-5.283206 -0.45696,-10.28686 -1.24436,-15.417665 -0.3556,-2.387606 -0.78769,-4.699021 -1.24489,-7.010424 -0.4572,-2.260603 -1.11768,-4.67342 -1.47328,-6.908623 z m 47.193491,32.816602 c 6.40081,0.0254 12.80129,0.279552 19.15129,0.787552 2.8194,0.2286 15.77385,1.49821 17.39945,2.46341 -0.3048,1.1684 -1.32074,3.25157 -1.85414,4.39457 -0.635,1.4478 -1.27032,2.87028 -1.90532,4.31808 -2.3368,5.2832 -5.41017,11.58246 -8.02637,16.68787 -5.5118,10.74421 -11.45519,21.28497 -18.10999,31.31798 l -4.92788,7.36596 c -0.508,-0.5334 -0.71133,-1.62529 -0.96533,-2.43809 -1.8288,-5.56261 -4.114751,-11.2523 -6.527751,-16.5101 -1.39702,-3.02261 -2.51446,-6.24875 -3.88606,-9.24595 -2.5908,-5.66421 -5.91797,-11.78531 -9.60099,-16.63671 l -5.842,-7.26468 c -0.5588,-0.635 -1.09244,-1.14266 -1.60044,-1.77766 l -11.16105,-11.46545 c -0.0209,0.003 -0.0452,0.007 -0.0656,0.01 l 0.0506,-0.0253 0.0151,0.0155 c 7.36108,-1.18846 30.99247,-2.022111 37.856581,-1.996782 z m -212.39271,13.233302 -6.09576,10.84585 c -1.82494,2.76427 -4.41563,9.89395 -5.2379,11.85612 l -1.87381,-0.24701 c -1.4732,0.2032 -4.41971,-0.10144 -6.14691,-0.0506 -1.8542,0.0508 -3.70848,0.17734 -5.48648,0.48214 -3.39132,0.57353 -6.38852,1.76062 -8.46769,3.43803 l -0.0196,-0.031 c -0.0302,0.0242 -0.0621,0.0475 -0.092,0.0718 v 0.0476 c 0,2.6e-4 0,7.9e-4 0,0.001 l -0.005,-0.007 v -0.0403 c -0.005,0.006 -0.01,0.0114 -0.0145,0.0176 l -2.85047,-4.59042 c -0.9906,-1.5494 -1.8285,-3.07349 -2.7683,-4.6483 -1.0668,-1.8288 -4.36867,-7.97584 -5.05447,-9.77924 l 0.13642,-0.0388 c -0.004,-0.0111 -0.0109,-0.0264 -0.0151,-0.0372 l 2.51404,-0.71107 c 12.4968,-2.7432 29.28609,-5.79152 41.47809,-6.57892 z m -12.72016,22.33094 c -0.0652,1.8e-4 -0.13441,0.006 -0.20669,0.0155 l 0.93689,0.12351 c -0.25668,-0.0727 -0.47414,-0.13973 -0.7302,-0.13901 z m -2.63602,4.66741 c 13.24433,0.0792 32.585874,5.55485 41.747337,10.11256 5.130826,2.54001 13.309626,7.67069 12.522226,15.2399 -1.2446,11.88721 -24.104679,19.93909 -37.896903,15.01148 -11.4046,-4.0894 -25.67969,-14.04637 -30.65809,-25.17159 -4.0132,-8.96621 1.21965,-14.14788 10.38905,-15.01148 v -0.0253 c 1.22158,-0.1143 2.52629,-0.16374 3.89638,-0.15555 z m 251.272,3.55792 c 2.37834,7.5028 3.96708,15.51185 5.26275,23.84919 -1.1207,-0.0826 -3.06157,-0.7601 -4.55168,-0.93689 -3.429,-0.4318 -7.16267,-0.27987 -10.56627,0.15193 -1.31638,0.16754 -3.27747,0.62247 -4.54184,0.61133 0.70279,-1.30302 3.04398,-5.07439 3.47525,-5.7428 2.92095,-4.47041 6.42596,-10.23644 9.09296,-14.96084 0.381,-0.7112 1.29543,-2.46397 1.82883,-2.97192 z M -63.966954,164.4867 c 2.34434,-0.0143 4.992453,0.8 6.668853,1.3715 -0.2286,0.3556 0.0254,0.0505 -0.33023,0.4315 -0.9144,0.9398 -1.65097,1.47359 -2.51457,3.04839 -4.826004,8.89001 1.87968,19.76112 7.3153,26.59372 0.508,0.635 0.8635,1.01607 1.3715,1.65107 2.159,2.7178 4.47074,4.52112 6.07094,6.37532 l 5.02917,4.39405 c 9.62663,8.001 25.19646,16.35783 38.2012896,17.80563 13.0302004,1.4478 29.0070604,-2.48951 38.5066904,-10.59212 3.9878,-3.4036 8.45799,-8.02611 9.09299,-15.79852 l 5.91849,-2.81947 c 7.87402,-4.0386 23.18988,-9.95668 31.67351,-12.90309 2.3114,-0.78739 11.81121,-4.16599 13.64001,-4.21679 0.006,-0.006 0.0175,-0.0136 0.0254,-0.0202 0.31848,0.0931 0.29839,0.20534 0.66196,0.50074 0.381,0.3048 0.55901,0.3053 0.94001,0.5085 0.254,1.7018 -0.0508,1.11736 0.50797,3.93671 1.701801,8.43281 3.251441,18.56742 3.429241,27.22883 0.635,29.64183 -8.839781,57.32759 -27.712011,76.75862 l -3.35224,3.22564 c -0.4064,0.4318 -0.7366,0.60957 -1.1684,1.01597 -4.06403,3.7592 -10.33783,8.12795 -15.36703,10.87115 -20.88898,10.32372 -41.30627,13.65091 -64.5924404,13.33511 -4.6990196,-0.3556 -10.3374296,-1.47334 -14.9856296,-2.46394 -14.53107,-4.19891 -37.496507,-16.70018 -39.367641,-18.01645 -2.335662,-1.5384 -16.847926,-10.9641 -27.206072,-21.50568 -1.2192,-1.21919 -5.588027,-6.68046 -6.680227,-8.10286 -15.671829,-20.26922 -24.967509,-45.69476 -26.618509,-71.9584 -0.15119,-2.59527 -0.55187,-17.58089 0.35914,-19.10994 2.18247,0.9908 6.30727,4.10574 14.75156,6.92051 11.480822,3.8354 25.247278,1.72754 34.848504,-4.95267 3.5814,-2.4892 8.1534,-6.70565 8.6868,-13.18266 0.66675,-0.2286 1.414304,-0.32544 2.195751,-0.33021 z m 30.710263,3.09956 c 17.22816,0.21888 42.1864096,7.28062 54.34346,13.23227 6.7056,3.2766 17.67838,10.0839 16.38298,20.01531 -1.1176,8.48361 -10.87163,14.6557 -18.74563,17.5767 -10.3378204,3.83541 -20.4216804,4.77562 -30.88648,1.37201 -8.50905,-2.7686 -19.15131,-9.39801 -24.48533,-14.19861 -0.508,-0.4572 -0.73681,-0.55904 -1.27021,-1.09244 -0.4318,-0.4318 -0.83789,-0.63472 -1.26969,-1.09192 -1.2192,-1.24461 -4.57221,-4.31806 -5.61361,-5.66426 -1.5494,-1.9812 -2.38768,-2.84503 -3.98788,-5.10563 -1.27,-1.778 -2.31153,-3.63194 -3.30213,-5.76554 -5.30863,-11.43001 1.42243,-18.1358 13.86843,-19.1518 v 0.0253 c 1.06362,-0.0857 2.174,-0.13501 3.32382,-0.1509 0.53896,-0.007 1.08652,-0.008 1.64227,-5.2e-4 z m 155.520221,5.92625 c 5.04994,-0.0228 9.47166,5.26419 9.82885,6.24251 0.5239,2.96733 0.13586,13.6915 -0.006,16.22485 -0.6604,-0.1016 -5.96937,-3.47939 -7.06157,-4.13979 l -14.32523,-8.20467 c -0.7112,-0.4064 -3.30176,-1.62513 -3.58116,-2.15853 -0.36857,-0.66338 -1.02031,-3.60113 -0.90175,-4.36769 0.0283,-0.006 0.0885,-0.0197 0.11263,-0.0243 2.0828,-0.8128 11.35393,-2.64149 14.32576,-3.37809 0.54054,-0.13097 1.07794,-0.1919 1.60866,-0.1943 z m -16.34678,14.49317 4.41986,2.41329 c 3.96243,2.1336 9.39806,5.38485 13.18266,7.67085 11.60782,7.06121 22.60584,14.35105 32.96904,22.70766 2.032,1.6256 13.84287,11.6077 14.57947,13.2333 -1.2446,0.635 -2.87007,1.8035 -4.21627,2.6417 -9.3472,5.84201 -20.24388,12.0142 -30.04831,17.0434 -7.1374,3.68301 -19.91352,9.70244 -27.7368,12.64884 -1.57469,0.6096 -3.20037,1.24499 -4.85137,1.87999 -1.47321,0.55881 -3.65724,1.4728 -5.130441,1.803 0.4318,-1.4478 1.269501,-3.04769 1.828301,-4.4447 7.16281,-17.80542 9.0427,-37.51572 7.5949,-56.66734 -0.2794,-3.6322 -0.63516,-7.23904 -1.11776,-10.84585 -0.254,-2.032 -1.57488,-8.73794 -1.47328,-10.08414 z m -237.4336,10.28723 c 0.254,3.6322 0.73673,7.31517 1.29553,10.87117 0.5334,3.4544 1.42264,6.75682 1.93064,10.05882 -2.5654,-0.8382 -14.3764,-7.2134 -15.875,-8.58501 v -0.0259 c 0.254,-0.762 0.93914,-1.11766 1.54874,-1.65106 1.2192,-1.0922 2.13394,-2.286 3.04839,-3.175 0.55883,-0.5334 0.99097,-0.93938 1.54977,-1.47278 z m 19.30426,60.45213 c 0,10e-4 0.003,0.003 0.003,0.004 0,-10e-4 0.003,-0.003 0.003,-0.004 3.35283,5.0038 4.95327,7.97544 8.94107,13.08085 l 3.12436,3.98788 c -0.003,0 -0.004,2.1e-4 -0.006,0 -3.29237,0.55446 -11.16463,0.29382 -15.76906,-0.0522 -0.003,-1.9e-4 -0.004,-2.6e-4 -0.006,0 -0.6581,-0.0488 -1.24916,-0.10009 -1.75081,-0.15089 -0.1016,-0.96521 4.82619,-15.97664 5.46119,-16.86564 z m 198.980609,27.635 c 0.4572,0.4826 0.35582,1.04135 0.43202,1.85415 1.3462,16.35762 2.2095,32.28377 0.7617,48.66679 -0.2286,2.4384 -1.42234,13.86822 -2.18434,15.26522 -0.8382,-0.1524 -3.0734,-1.26997 -4.0132,-1.67637 l -11.70938,-5.43584 c -5.207,-2.4892 -10.13452,-5.18118 -15.06212,-7.82278 -4.97842,-2.66703 -9.72817,-5.63893 -14.37637,-8.48373 -0.508,-0.3048 -13.03031,-8.33155 -13.33511,-9.24595 l 0.0506,-0.0254 c 12.6492,-1.6764 25.29853,-6.07038 34.54413,-11.76001 2.4892,-1.524 4.80062,-2.92082 7.01042,-4.57182 1.1684,-0.889 2.23518,-1.67679 3.35278,-2.54039 1.06682,-0.8128 2.23536,-1.72694 3.12436,-2.59054 l 5.96913,-5.61361 c 0.9906,-1.016 1.87923,-1.82856 2.79363,-2.92076 0.5334,-0.6604 2.2861,-2.38784 2.6417,-3.09904 z m -128.66502,29.17394 c 5.5499,2.14966 11.35261,3.95819 17.05943,4.96403 9.0932,1.7018 15.2914896,1.85407 24.51168957,2.20969 -0.4064,0.7112 -2.43857997,2.28614 -3.07370997,2.92127 -1.8034,1.8034 -5.18147,4.52107 -7.0610696,6.22287 l -4.11499,3.45405 c -0.7366,0.5842 -1.27053,1.06731 -2.00713,1.67691 -3.3782,2.794 -9.37257,7.3152 -13.0302,9.8552 -0.51406,0.35866 -1.309,0.94387 -2.12288,1.50897 z"
       id="path5912" />
    <path
       class="fil4"
       d="m 5.4372786,183.51129 c -0.737,-0.90011 -2.28603,0.9144 -4.16563,2.3368 -1.27000003,0.9652 -2.667,1.905 -4.0132,2.8702 -2.6162,1.90501 -5.3594,3.78461 -8.0517996,5.58801 l -12.06503,8.28041 c -0.6858,0.4826 -1.2954,0.8636 -2.032,1.3462 -0.5588,0.381 -1.9812,1.2192 -0.8636,2.0066 0.7366,0.508 1.6764,-0.4318 2.2098,-0.8128 5.79123,-3.9878 12.64923,-8.43281 18.1610296,-12.44601 l 7.9502,-5.68961 c 1.61467,-1.64085 3.60722,-2.57969 2.87023,-3.4798 z"
       style="clip-rule:evenodd;fill:#ffffff;fill-opacity:1;fill-rule:evenodd;stroke:#ffffff;stroke-width:1.42875004;stroke-miterlimit:4;stroke-dasharray:none;image-rendering:optimizeQuality;shape-rendering:geometricPrecision"
       id="path73"
       inkscape:connector-curvature="0"
       sodipodi:nodetypes="zcccccccccz" />
    <path
       class="fil4"
       d="m -98.194857,151.22658 -12.928623,9.16941 c -2.1844,1.524 -4.3688,3.04801 -6.604,4.49581 l -4.9022,3.3782 c -0.508,0.762 0.2032,1.5494 1.0668,1.27 0.2794,-0.1016 2.8448,-1.8796 3.2512,-2.159 l 6.604,-4.49581 c 3.60682,-2.413 9.67742,-6.62941 13.004823,-9.19481 0.381,-0.2794 1.2954,-0.9906 1.4478,-1.2446 0.188886,-0.81153 -0.412564,-1.40338 -0.9398,-1.2192 z"
       style="clip-rule:evenodd;fill:#ffffff;fill-opacity:1;fill-rule:evenodd;stroke:#ffffff;stroke-width:1.42875004;stroke-miterlimit:4;stroke-dasharray:none;image-rendering:optimizeQuality;shape-rendering:geometricPrecision"
       id="path75"
       inkscape:connector-curvature="0"
       sodipodi:nodetypes="cccccccccc" />
    <path
       class="fil4"
       d="m -23.998551,195.22056 c 1.0668,-0.6604 1.905,-1.1938 2.9972,-1.8796 2.0066,-1.27 4.0132,-2.46381 5.969,-3.78461 l 8.8900296,-5.7404 c 0.6096,-0.4064 2.8448,-1.4986 1.778,-2.46381 -0.7366,-0.6858 -2.3876,0.7874 -3.0226,1.24461 -0.9652,0.6858 -2.0066,1.27 -2.9717996,1.905 -2.00663,1.3462 -3.93703,2.5146 -5.94363,3.81 l -8.9662,5.68961 c -1.9812,1.2446 -2.46599,1.85361 -2.0574,2.5654 0.18371,0.32001 2.32432,-0.7572 3.3274,-1.3462 z"
       style="clip-rule:evenodd;fill:#ffffff;fill-opacity:1;fill-rule:evenodd;stroke:#ffffff;stroke-width:1.42875004;stroke-miterlimit:4;stroke-dasharray:none;image-rendering:optimizeQuality;shape-rendering:geometricPrecision"
       id="path77"
       inkscape:connector-curvature="0"
       sodipodi:nodetypes="cccccccccsc" />
    <path
       class="fil4"
       d="m 7.8063286,194.04812 c 0.0635,-1.5113 -4.27831,1.64234 -4.92601,2.13764 -0.6477,0.4953 -10.1092,8.05181 -10.1092,8.05181 -0.7112,0.5588 -4.8005996,3.73381 -4.9275996,4.31801 -0.127,0.5588 0.3302,1.016 0.8636,0.9906 0.635,-0.0254 7.8231996,-6.14681 8.8899996,-7.03581 1.72719997,-1.3716 3.32739997,-2.69241 5.08,-3.98781 0.9398,-0.7112 1.67642,-1.2954 2.59082,-1.9558 2.15546,-1.84392 2.52619,-2.29858 2.53839,-2.51864 z"
       style="clip-rule:evenodd;fill:#ffffff;fill-opacity:1;fill-rule:evenodd;stroke:#ffffff;stroke-width:1.42875004;stroke-miterlimit:4;stroke-dasharray:none;image-rendering:optimizeQuality;shape-rendering:geometricPrecision"
       id="path79"
       inkscape:connector-curvature="0"
       sodipodi:nodetypes="csccccccc" />
    <path
       class="fil4"
       d="m -106.18175,149.52478 -14.47803,9.27101 c -0.8128,0.5334 -1.6764,1.0668 -2.4892,1.5494 -1.4732,0.8636 -0.5334,2.2098 0.635,1.651 0.635,-0.3048 1.778,-1.1176 2.3876,-1.4986 l 14.55423,-9.32181 c 1.4986,-0.9906 0.3556,-2.159 -0.6096,-1.651 z"
       style="clip-rule:evenodd;fill:#ffffff;fill-opacity:1;fill-rule:evenodd;stroke:#ffffff;stroke-width:1.42875004;stroke-miterlimit:4;stroke-dasharray:none;image-rendering:optimizeQuality;shape-rendering:geometricPrecision"
       id="path81"
       inkscape:connector-curvature="0" />
    <path
       class="fil4"
       d="m -111.54399,172.15733 c 0.51467,0.63414 1.524,-0.1778 2.3114,-0.8128 l 12.395231,-9.80441 c 0.6604,-0.4572 2.3876,-0.9398 1.4986,-2.0574 -0.8128,-1.0414 -3.937,1.7526 -4.5466,2.1844 l -8.255031,6.55321 c -0.7112,0.6096 -1.2446,1.0414 -2.032,1.6764 -0.7112,0.6096 -1.92704,1.57625 -1.3716,2.2606 z"
       style="clip-rule:evenodd;fill:#ffffff;fill-opacity:1;fill-rule:evenodd;stroke:#ffffff;stroke-width:1.42875004;stroke-miterlimit:4;stroke-dasharray:none;image-rendering:optimizeQuality;shape-rendering:geometricPrecision"
       id="path83"
       inkscape:connector-curvature="0"
       sodipodi:nodetypes="acccccca" />
    <path
       inkscape:connector-curvature="0"
       id="path59"
       style="clip-rule:evenodd;fill:#ffffff;fill-rule:evenodd;stroke:#ffffff;stroke-width:0.28222254;image-rendering:optimizeQuality;shape-rendering:geometricPrecision"
       d="m -24.788781,240.06742 c -1.16422,0.12466 -2.11325,0.83585 -2.02551,2.32819 0.16446,2.85581 3.51594,1.00892 8.3013,5.27897 7.54748,6.75331 4.27963,19.44711 -1.08307,25.31057 -1.42986,1.57725 -2.921,2.78983 -5.03148,3.60031 -0.96263,0.3774 -1.92556,0.98475 -1.75924,2.46038 0.13319,1.08855 1.15581,1.99589 2.45189,1.83497 1.47564,-0.16632 4.65077,-2.26298 5.41473,-2.9182 1.43777,-1.19298 2.87612,-2.84591 4.13512,-4.72355 6.5263996,-9.84787 7.0668596,-23.74282 -3.87435,-30.77637 -1.12104,-0.71396 -5.00351,-2.55642 -6.53232,-2.37055 z"
       class="fil3"
       sodipodi:nodetypes="cccccccccccc" />
    <path
       inkscape:connector-curvature="0"
       id="path4323"
       style="clip-rule:evenodd;fill:#ffffff;fill-rule:evenodd;stroke:#ffffff;stroke-width:0.28222254;image-rendering:optimizeQuality;shape-rendering:geometricPrecision"
       d="m -69.436368,218.83864 c 1.10744,0.38015 1.874785,1.28439 1.457722,2.71997 -0.794703,2.74781 -3.652229,0.20266 -9.266502,3.30314 -8.858965,4.90813 -8.492358,18.01059 -4.566338,24.91883 1.043755,1.85548 2.228215,3.36889 4.105751,4.62817 0.854737,0.58178 1.658699,1.38789 1.168744,2.78972 -0.37166,1.03174 -1.570249,1.6893 -2.798233,1.24446 -1.401816,-0.48994 -4.032118,-3.23964 -4.631267,-4.04821 -1.136835,-1.48254 -2.17207,-3.41376 -2.982542,-5.52422 -4.17576,-11.05155 -1.616075,-24.71959 10.61384,-29.14512 1.251585,-0.44713 5.446315,-1.38114 6.895835,-0.86027 z"
       class="fil3"
       sodipodi:nodetypes="cccccccccccc" />
    <path
       d="m -70.113701,234.32136 c -2.607125,0.12033 -4.135411,2.98686 -2.782279,5.21858 0,0 3.810291,6.69855 6.800162,10.1555 3.278002,3.78996 6.927987,6.91643 10.714857,9.36076 3.14227,2.02833 6.48605,3.49645 9.89444,4.3053 3.19251,0.75763 6.65877,1.13256 10.16341,0.3709 2.43083,-0.52835 4.64622,-1.75427 6.59495,-2.84565 1.94866,-1.09122 3.48038,-2.09327 3.48038,-2.09327 1.62047,-1.02687 2.08749,-3.18101 1.03781,-4.78678 -1.04969,-1.60578 -3.21019,-2.0423 -4.80097,-0.97 0,0 -1.35287,0.8835 -3.07735,1.84923 -1.72452,0.96571 -3.97086,1.96814 -4.69535,2.12559 -2.09531,0.45537 -4.53839,0.26952 -7.11509,-0.34194 -2.56834,-0.60949 -5.21012,-1.75079 -7.75266,-3.39203 -3.23229,-2.08642 -6.39374,-4.78791 -9.2428,-8.08173 -1.810066,-2.09276 -6.071445,-9.13921 -6.071445,-9.13921 -0.639339,-1.12476 -1.855814,-1.79555 -3.148198,-1.73601 z"
       style="color:#000000;text-indent:0;text-decoration:none;text-decoration-line:none;text-decoration-style:solid;text-decoration-color:#000000;text-transform:none;white-space:normal;isolation:auto;mix-blend-mode:normal;solid-color:#000000;fill:#ffffff;fill-rule:evenodd;stroke:#ffffff;stroke-width:0.28222254;color-rendering:auto;image-rendering:auto;shape-rendering:auto"
       id="path4325"
       inkscape:connector-curvature="0"
       sodipodi:nodetypes="ccccccccsccccccccc" />
  </g>
</svg>
